<svg version="1.1" id="Layer_1" xmlns="http://www.w3.org/2000/svg" xmlns:xlink="http://www.w3.org/1999/xlink" x="0px" y="0px"
	 width="308.667px" height="88.5px" viewBox="0 0 308.667 88.5" enable-background="new 0 0 308.667 88.5" xml:space="preserve">
<polygon fill="#006699" points="128.833,42.187 143.357,55.113 144.508,53.653 145.573,51.829 146.182,49.861 147.09,47.821
	149.581,43.745 151.694,45.027 152.826,43.97 154.712,42.687 160.916,34.84 162.667,32.275 162.667,31.898 162.688,31.596
	163.793,30.464 164.006,28.88 164.716,28.729 165.412,26.993 163.004,24.202 163.989,24.051 164.066,23.673 163.388,22.617
	164.445,21.988 164.371,20 164.521,20 163.943,18.857 163.667,19.146 163.667,18.317 162.454,17.524 162.817,17.147 162.868,16.525
	163.637,16.355 163.674,16.034 163.202,15.525 163.333,15.261 163.164,14.129 162.804,14.072 162.409,14.412 161.937,14.393
	161.012,14.659 160.597,15 160.447,15 159.805,15 159.542,15 159.447,15 158.862,15 157.411,16.243 157.165,16.874 156.373,17.247
	156.146,18.046 156.052,19.322 155.581,20.093 149.808,17.545 147.978,19.657 149.148,20.977 147.771,22.58 146.526,24.711
	146.092,25.465 145.753,25.107 145.583,24.711 145.338,24.371 144.847,24.409 144.715,23.881 144.395,23.806 143.546,25.126
	143.168,25.258 142.565,26.126 141.773,27.729 141.037,28.559 140.603,28.615 139.849,29.351 139.49,29.427 138.792,30.294
	138.509,30.332 138.717,28.163 138.396,28.05 137.83,28.163 137.17,28.483 136.567,29.276 135.888,30.313 135.322,30.577
	134.228,31.52 132.945,33.652 132.662,35.161 131.606,37.273 130.964,37.896 129.569,40.216 128.984,41.593 "/>
<rect x="1.667" y="41" fill="#006699" width="120" height="2"/>
<rect x="169.667" y="41" fill="#006699" width="131" height="2"/>
<g>
	<path fill="#006699" d="M23.906,26.56H10.622L8.735,31H2.519L14.137,5.098h6.291L32.046,31h-6.253L23.906,26.56z M17.283,10.945
		l-4.478,10.508h8.917L17.283,10.945z"/>
	<path fill="#006699" d="M45.402,5.098c8.917,0,12.877,5.995,12.877,12.766S54.468,31,45.402,31c-3.256,0-7.363,0-10.62,0V5.098
		H45.402z M40.481,25.672h4.921c5.625,0,7.179-4.145,7.179-7.882s-1.776-7.475-7.179-7.475h-4.921V25.672z"/>
	<path fill="#006699" d="M80.071,26.56H66.788L64.9,31h-6.216L70.303,5.098h6.291L88.212,31h-6.253L80.071,26.56z M73.448,10.945
		l-4.478,10.508h8.917L73.448,10.945z"/>
	<path fill="#006699" d="M113.482,13.017l-7.993,10.065h-1.036L96.72,12.943v18.094h-5.772V5.135c2.183,0,4.44,0,6.624,0
		l7.548,9.954l7.585-9.954h6.55v25.902h-5.772V13.017z"/>
</g>
<g>
	<path fill="#006699" d="M187.889,11.352c-1.443-1.517-3.959-2.183-5.994-2.183c-2.554,0-4.625,1.073-4.625,2.849
		c0,2.368,2.257,2.812,5.587,3.108c5.106,0.444,9.954,2.405,9.954,8.399c0,5.772-5.329,8.289-10.916,8.326
		c-4.478,0.037-9.14-1.702-11.323-5.329l3.441-3.589c1.998,2.553,5.292,3.663,7.919,3.663c3.071,0,5.18-1.221,5.18-3.071
		c0.037-2.183-1.701-3.182-5.217-3.478c-5.477-0.518-10.36-1.887-10.287-7.993c0.037-5.144,4.922-7.881,10.25-7.881
		c3.996,0,6.993,0.888,9.657,3.996L187.889,11.352z"/>
	<path fill="#006699" d="M214.122,31.037v-10.25H202.54v10.25h-5.772V5.135h5.772v10.361h11.582V5.135h5.698v25.902H214.122z"/>
	<path fill="#006699" d="M243.944,26.56H230.66L228.773,31h-6.217l11.619-25.902h6.29L252.084,31h-6.253L243.944,26.56z
		 M237.321,10.945l-4.478,10.508h8.918L237.321,10.945z"/>
	<path fill="#006699" d="M277.799,31h-6.402l-6.623-8.511h-4.182V31h-5.772V5.098c4.219,0,8.104,0,12.285,0
		c6.254,0,9.584,4.181,9.584,8.733c-0.037,3.367-1.036,6.364-5.994,8.14l7.104,8.585V31z M260.592,10.057v7.548h6.587
		c2.664,0,3.812-1.998,3.812-3.626c-0.037-1.776-1.185-3.922-3.886-3.922H260.592z"/>
	<path fill="#006699" d="M287.417,23.673V31h-5.772V5.098c4.145,0,8.104,0,12.211,0c6.624,0,9.917,4.292,9.917,9.288
		c0,5.181-3.33,9.214-9.917,9.288H287.417z M287.417,18.382h6.438c2.775,0,4.145-1.813,4.145-3.885c0-2.072-1.406-3.922-4.145-3.922
		h-6.438V18.382z"/>
</g>
<g>
	<path fill="#006699" d="M53.395,79.478c-1.82,1.82-4.238,2.73-6.63,2.73c-6.136,0-9.334-4.29-9.36-9.204
		c-0.052-4.862,3.12-9.412,9.36-9.412c2.393,0,4.811,0.909,6.63,2.729l-0.962,0.832c-1.56-1.56-3.614-2.313-5.668-2.313
		c-5.304,0-8.034,3.744-8.008,8.111c0.052,4.265,2.756,7.957,8.008,7.957c2.054,0,4.134-0.78,5.694-2.314L53.395,79.478z"/>
	<path fill="#006699" d="M58.542,63.799v16.875h10.245V82H57.138V63.799H58.542z"/>
	<path fill="#006699" d="M73.18,72.197H83.84v1.274H73.18v7.177h11.493V82H71.802V63.799H84.36v1.326H73.18V72.197z"/>
	<path fill="#006699" d="M103.184,82h-1.846l-6.292-6.891h-4.966V82h-1.404V63.799c2.678,0,5.33,0,8.008,0
		c3.952,0,5.954,2.835,5.98,5.669c0.026,2.964-1.924,5.563-5.902,5.563L103.184,82z M90.079,73.783h6.448
		c3.172,0,4.576-1.794,4.602-4.342c0.026-2.132-1.43-4.342-4.446-4.342h-6.604V73.783z"/>
	<path fill="#006699" d="M119.59,82h-1.768l-9.594-8.971v8.944h-1.404V63.799h1.404v8.295l8.84-8.295h1.69v0.131l-9.152,8.58
		l9.984,9.387V82z"/>
	<path fill="#006699" d="M145.928,72.926c-0.026,4.784-3.068,9.387-9.178,9.387s-9.179-4.629-9.179-9.438
		c0-4.889,3.042-9.36,9.179-9.36S145.954,68.012,145.928,72.926z M128.949,72.899c0.026,4.108,2.626,8.112,7.8,8.112
		c5.2,0,7.826-4.004,7.826-8.112c0-4.212-2.6-8.086-7.826-8.086C131.523,64.813,128.923,68.609,128.949,72.899z"/>
	<path fill="#006699" d="M151.309,72.458h10.479v1.325h-10.479v8.243h-1.404V63.799h12.247v1.404h-10.843V72.458z"/>
	<path fill="#006699" d="M187.319,79.478c-1.82,1.82-4.238,2.73-6.63,2.73c-6.137,0-9.335-4.29-9.36-9.204
		c-0.053-4.862,3.12-9.412,9.36-9.412c2.392,0,4.81,0.909,6.63,2.729l-0.962,0.832c-1.56-1.56-3.614-2.313-5.668-2.313
		c-5.305,0-8.034,3.744-8.009,8.111c0.053,4.265,2.756,7.957,8.009,7.957c2.054,0,4.134-0.78,5.694-2.314L187.319,79.478z"/>
	<path fill="#006699" d="M207.807,72.926c-0.026,4.784-3.068,9.387-9.179,9.387s-9.178-4.629-9.178-9.438
		c0-4.889,3.042-9.36,9.178-9.36C204.765,63.514,207.833,68.012,207.807,72.926z M190.829,72.899c0.025,4.108,2.626,8.112,7.8,8.112
		c5.2,0,7.827-4.004,7.827-8.112c0-4.212-2.601-8.086-7.827-8.086C193.403,64.813,190.802,68.609,190.829,72.899z"/>
	<path fill="#006699" d="M225.513,63.799v11.311c0,9.517-13.937,9.543-13.937,0V63.799h1.378v11.311c0,7.826,11.181,7.801,11.181,0
		V63.799H225.513z"/>
	<path fill="#006699" d="M244.96,82h-1.847l-6.292-6.891h-4.966V82h-1.404V63.799c2.678,0,5.33,0,8.008,0
		c3.952,0,5.955,2.835,5.98,5.669c0.026,2.964-1.924,5.563-5.902,5.563L244.96,82z M231.856,73.783h6.448
		c3.172,0,4.576-1.794,4.602-4.342c0.026-2.132-1.43-4.342-4.446-4.342h-6.604V73.783z"/>
	<path fill="#006699" d="M252.629,65.073h-6.578v-1.248h14.561v1.248h-6.578V82h-1.404V65.073z"/>
</g>
</svg>
